# xmcd
#
# Track frame offsets:
#	182
#	10785
#	24777
#	36727
#	48857
#	60132
#	70287
#	79615
#	91375
#	103530
#	114827
#	125580
#	137832
#	148405
#	161112
#	173637
#
# Disc length: 2433 seconds
#
# Revision: 5
# Processed by: cddbd v1.5.2PL0 Copyright (c) Steve Scherf et al.
# Submitted via: EasyCDDAExtractor 12.0.4.1
#
DISCID=cf097f10
DTITLE=Various Artist - Golden Hit Collection_V6, 1961
DYEAR=1900
DGENRE=Oldies
TTITLE0=rick nelson - hello mary lou
TTITLE1=ben e king - amor
TTITLE2=jerry butler - moon river
TTITLE3=tokens - the lion sleeps tonight
TTITLE4=marvelettes - please mr. postman
TTITLE5=marvelettes - running scared
TTITLE6=joe dowell - wooden heart
TTITLE7=pat boone - moody river
TTITLE8=neil sedaka - calender girl
TTITLE9=timi yuro - hurt
TTITLE10=leroy van dyke - walk on by
TTITLE11=shirelles - will you love me tomorrow
TTITLE12=del shannon - runaway
TTITLE13=dion - the wanderer
TTITLE14=highway man - michael row the boat ashore
TTITLE15=joe dee and starliters - the pepermint twist
EXTD=
EXTT0=
EXTT1=
EXTT2=
EXTT3=
EXTT4=
EXTT5=
EXTT6=
EXTT7=
EXTT8=
EXTT9=
EXTT10=
EXTT11=
EXTT12=
EXTT13=
EXTT14=
EXTT15=
PLAYORDER=
